<svg id="lidt-mad-ik1" xmlns="http://www.w3.org/2000/svg" width="559.392" height="442.814" viewBox="0 0 559.392 442.814">
  <path id="Path_500" data-name="Path 500" d="M435.336-26.078V-38.065h2.179V-42.49H428.2v4.425h2.176v11.987a12.282,12.282,0,0,0-9.8,12.028V5.021h24.557V-14.05a12.284,12.284,0,0,0-9.8-12.028Z" transform="translate(-111.118 79.344)" fill="#e7e5f4"/>
  <path id="Path_501" data-name="Path 501" d="M445.137,60.646H420.58V46.35h24.557Z" transform="translate(-111.118 18.647)" fill="#efeff9"/>
  <path id="Path_502" data-name="Path 502" d="M534.254-95.85v-10.333h1.723v-4.847H523.344v4.847h1.723V-95.85a11.921,11.921,0,0,0-7.327,11V-41.8h23.841V-84.848a11.923,11.923,0,0,0-7.327-11Z" transform="translate(-177.5 126.172)" fill="#e7e5f4"/>
  <path id="Path_503" data-name="Path 503" d="M541.581,6.9H517.74V-11.39h23.841Z" transform="translate(-177.5 58.096)" fill="#efeff9"/>
  <path id="Path_504" data-name="Path 504" d="M818.8-95.85v-10.333h1.723v-4.847H807.894v4.847h1.72V-95.85a11.923,11.923,0,0,0-7.324,11V-41.8h23.841V-84.848a11.923,11.923,0,0,0-7.327-11Z" transform="translate(-371.91 126.172)" fill="#e7e5f4"/>
  <path id="Path_505" data-name="Path 505" d="M826.131-4.437H802.29V-11.39h23.841Z" transform="translate(-371.91 58.096)" fill="#efeff9"/>
  <path id="Path_506" data-name="Path 506" d="M826.131,28.48H802.29V21.53h23.841Z" transform="translate(-371.91 35.604)" fill="#efeff9"/>
  <path id="Path_507" data-name="Path 507" d="M650,20.359H628.16v-40.4H650Z" transform="translate(-252.941 64.006)" fill="#e7e5f4"/>
  <path id="Path_508" data-name="Path 508" d="M657.665-29.086H649.09V-33.28h8.575Z" transform="translate(-267.24 73.052)" fill="#efeff9"/>
  <path id="Path_509" data-name="Path 509" d="M650-3.5H628.16V-6.84H650Z" transform="translate(-252.941 54.987)" fill="#efeff9"/>
  <path id="Path_510" data-name="Path 510" d="M747.333-10.379h-10.6V-65.03h10.6Z" transform="translate(-327.118 94.744)" fill="#e7e5f4"/>
  <path id="Path_511" data-name="Path 511" d="M749.352.179H742.24V-17.76h7.112Z" transform="translate(-330.882 62.448)" fill="#efeff9"/>
  <path id="Path_512" data-name="Path 512" d="M750.011-74.465H744.04v-1.391a2.986,2.986,0,0,1,2.987-2.984h0a2.985,2.985,0,0,1,2.984,2.984v1.391Z" transform="translate(-332.112 104.179)" fill="#efeff9"/>
  <path id="Path_513" data-name="Path 513" d="M913.842,8.4V-6.064h1.229V-8.19h-5.125v2.126h1.229V8.4a6.661,6.661,0,0,0-5.325,6.526v6.96a6.659,6.659,0,0,0,13.318,0v-6.96A6.662,6.662,0,0,0,913.842,8.4Z" transform="translate(-442.664 55.91)" fill="#e7e5f4"/>
  <path id="Path_514" data-name="Path 514" d="M917.141,69.452h0a4.513,4.513,0,0,1-4.511-4.511h0a4.513,4.513,0,0,1,4.511-4.511h0a4.511,4.511,0,0,1,4.511,4.511h0a4.511,4.511,0,0,1-4.511,4.511Z" transform="translate(-447.296 9.027)" fill="#efeff9"/>
  <path id="Path_515" data-name="Path 515" d="M1017.072,45.993H977.63V17.48h39.442Z" transform="translate(-491.706 38.372)" fill="#efeff9"/>
  <path id="Path_516" data-name="Path 516" d="M996.864-32.757H994.14V-56.05h2.724Z" transform="translate(-502.986 88.609)" fill="#e7e5f4"/>
  <path id="Path_517" data-name="Path 517" d="M1017.181-32.757h-2.721V-56.05h2.721Z" transform="translate(-516.869 88.609)" fill="#e7e5f4"/>
  <path id="Path_518" data-name="Path 518" d="M1038.311-32.757h-2.721V-56.05h2.721Z" transform="translate(-531.305 88.609)" fill="#e7e5f4"/>
  <path id="Path_519" data-name="Path 519" d="M1059.591-32.757h-2.721V-56.05h2.721Z" transform="translate(-545.844 88.609)" fill="#e7e5f4"/>
  <path id="Path_520" data-name="Path 520" d="M1078.7-32.757h-2.721V-56.05h2.721Z" transform="translate(-558.9 88.609)" fill="#e7e5f4"/>
  <path id="Path_521" data-name="Path 521" d="M1017.072,27.993H977.63V25.62h39.442Z" transform="translate(-491.706 32.81)" fill="#e7e5f4"/>
  <path id="Path_522" data-name="Path 522" d="M623.94,115.232H394.37V105.96H623.94Z" transform="translate(-93.211 -22.08)" fill="#e7e5f4"/>
  <path id="Path_523" data-name="Path 523" d="M623.243,105.586H393.673a.323.323,0,1,1,0-.646h229.57a.323.323,0,0,1,0,.646Z" transform="translate(-92.514 -21.383)" fill="#2f3a5b"/>
  <path id="Path_524" data-name="Path 524" d="M776.921,595.815h-20.2V559.24h20.2Z" transform="translate(-340.776 -331.77)" fill="#404d79"/>
  <path id="Path_525" data-name="Path 525" d="M693.124,372.9H537.645a2.575,2.575,0,0,1-2.575-2.575v-92.88a2.575,2.575,0,0,1,2.575-2.575H693.124a2.575,2.575,0,0,1,2.575,2.575v92.88a2.575,2.575,0,0,1-2.575,2.575Z" transform="translate(-189.34 -137.483)" fill="#f9af15"/>
  <path id="Path_526" data-name="Path 526" d="M704,373.826H557.55V296.3H704Z" transform="translate(-204.698 -152.124)" fill="#fff"/>
  <path id="Path_527" data-name="Path 527" d="M557.2,372.872H703.044V295.955H557.2v76.917Zm146.454.608H556.59V295.35H703.649v78.131Z" transform="translate(-204.043 -151.475)" fill="#404d79"/>
  <path id="Path_528" data-name="Path 528" d="M840.8,378.362H837.71V361.49H840.8Z" transform="translate(-396.109 -196.663)" fill="#404d79"/>
  <path id="Path_529" data-name="Path 529" d="M858.972,389.7H855.88V378.08h3.092Z" transform="translate(-408.524 -207.998)" fill="#404d79"/>
  <path id="Path_530" data-name="Path 530" d="M877.922,383.547H874.83V369.08h3.092Z" transform="translate(-421.471 -201.849)" fill="#404d79"/>
  <path id="Path_531" data-name="Path 531" d="M896.872,367.02H893.78V344.89h3.092Z" transform="translate(-434.418 -185.322)" fill="#404d79"/>
  <path id="Path_532" data-name="Path 532" d="M821.638,314.931a1.329,1.329,0,0,0-1.327,1.327v33.313a1.329,1.329,0,0,0,1.327,1.327h56.647a1.329,1.329,0,0,0,1.327-1.327V316.258a1.329,1.329,0,0,0-1.327-1.327ZM878.285,351.2H821.638a1.63,1.63,0,0,1-1.628-1.631V316.258a1.628,1.628,0,0,1,1.628-1.628h56.647a1.632,1.632,0,0,1,1.631,1.628v33.313a1.633,1.633,0,0,1-1.631,1.631Z" transform="translate(-384.017 -164.648)" fill="#404d79"/>
  <path id="Path_533" data-name="Path 533" d="M880.092,331.191h-59.6v-.3h59.6Z" transform="translate(-384.344 -175.757)" fill="#404d79"/>
  <path id="Path_534" data-name="Path 534" d="M827.49,322.523a.575.575,0,1,1-.573-.573.573.573,0,0,1,.573.573Z" transform="translate(-388.341 -169.649)" fill="#f9af15"/>
  <path id="Path_535" data-name="Path 535" d="M833.49,322.523a.575.575,0,1,1-.577-.573.576.576,0,0,1,.577.573Z" transform="translate(-392.441 -169.649)" fill="#404d79"/>
  <path id="Path_536" data-name="Path 536" d="M838.857,322.523a.573.573,0,1,1-.573-.573.573.573,0,0,1,.573.573Z" transform="translate(-396.109 -169.649)" fill="#404d79"/>
  <path id="Path_537" data-name="Path 537" d="M947.122,361.725a9.866,9.866,0,1,1-9.868-9.865,9.869,9.869,0,0,1,9.868,9.865Z" transform="translate(-457.381 -190.084)" fill="#f5b5d3"/>
  <path id="Path_538" data-name="Path 538" d="M967.093,362.323H956.62V351.85h1.21v9.263h9.263Z" transform="translate(-477.351 -190.077)" fill="#404d79"/>
  <path id="Path_539" data-name="Path 539" d="M649.028,390.242H582.85a1.728,1.728,0,0,1-1.73-1.73V349.6a1.727,1.727,0,0,1,1.73-1.726h66.178a1.726,1.726,0,0,1,1.727,1.726v38.92a1.726,1.726,0,0,1-1.727,1.726Z" transform="translate(-220.802 -187.358)" fill="#fff"/>
  <path id="Path_540" data-name="Path 540" d="M582.529,347.691a1.577,1.577,0,0,0-1.578,1.574v38.92a1.578,1.578,0,0,0,1.578,1.578h66.178a1.577,1.577,0,0,0,1.574-1.578V349.269a1.576,1.576,0,0,0-1.574-1.574H582.529Zm66.178,42.372H582.529a1.881,1.881,0,0,1-1.878-1.879V349.269a1.881,1.881,0,0,1,1.878-1.879h66.178a1.881,1.881,0,0,1,1.879,1.879v38.92a1.88,1.88,0,0,1-1.879,1.875Z" transform="translate(-220.481 -187.03)" fill="#404d79"/>
  <line id="Line_25" data-name="Line 25" x2="69.635" transform="translate(360.318 166.528)" fill="#fff"/>
  <path id="Path_541" data-name="Path 541" d="M650.755,366.684H581.12v-.3h69.635Z" transform="translate(-220.802 -200.004)" fill="#404d79"/>
  <path id="Path_542" data-name="Path 542" d="M590.943,356.832a.672.672,0,1,1-.672-.672.672.672,0,0,1,.672.672Z" transform="translate(-226.596 -193.022)" fill="#f9af15"/>
  <path id="Path_543" data-name="Path 543" d="M597.95,356.832a.67.67,0,1,1-.672-.672.672.672,0,0,1,.672.672Z" transform="translate(-231.385 -193.022)" fill="#404d79"/>
  <path id="Path_544" data-name="Path 544" d="M604.223,356.832a.672.672,0,1,1-.672-.672.672.672,0,0,1,.672.672Z" transform="translate(-235.669 -193.022)" fill="#404d79"/>
  <path id="Path_545" data-name="Path 545" d="M666.87,394.713v14.813a1.775,1.775,0,0,0,2.721,1.5l11.759-7.406a1.777,1.777,0,0,0,0-3.006l-11.759-7.4a1.774,1.774,0,0,0-2.721,1.5Z" transform="translate(-279.388 -218.147)" fill="#f9af15"/>
  <path id="Path_546" data-name="Path 546" d="M781.338,553.6a4.544,4.544,0,1,1-4.543-4.546,4.542,4.542,0,0,1,4.543,4.546Z" transform="translate(-351.386 -324.808)" fill="#404d79"/>
  <path id="Path_547" data-name="Path 547" d="M891.024,464.075H853.108a.99.99,0,0,1-.988-.988v-22.3a.99.99,0,0,1,.988-.988h37.915a.99.99,0,0,1,.988.988v22.3a.99.99,0,0,1-.988.988Z" transform="translate(-405.955 -250.166)" fill="#fff"/>
  <path id="Path_548" data-name="Path 548" d="M852.78,439.624a.84.84,0,0,0-.836.836v22.3a.837.837,0,0,0,.836.836H890.7a.837.837,0,0,0,.836-.836v-22.3a.84.84,0,0,0-.836-.836ZM890.7,463.9H852.78a1.142,1.142,0,0,1-1.14-1.14v-22.3a1.144,1.144,0,0,1,1.14-1.14H890.7a1.144,1.144,0,0,1,1.14,1.14v22.3a1.142,1.142,0,0,1-1.14,1.14Z" transform="translate(-405.627 -249.838)" fill="#404d79"/>
  <line id="Line_26" data-name="Line 26" x2="39.892" transform="translate(446.165 193.08)" fill="#fff"/>
  <path id="Path_549" data-name="Path 549" d="M892.012,450.5H852.12v-.3h39.892Z" transform="translate(-405.955 -257.272)" fill="#404d79"/>
  <path id="Path_550" data-name="Path 550" d="M857.75,444.936a.385.385,0,1,1-.386-.386.385.385,0,0,1,.386.386Z" transform="translate(-409.275 -253.411)" fill="#f9af15"/>
  <path id="Path_551" data-name="Path 551" d="M861.76,444.936a.385.385,0,1,1-.386-.386.385.385,0,0,1,.386.386Z" transform="translate(-412.015 -253.411)" fill="#404d79"/>
  <path id="Path_552" data-name="Path 552" d="M865.357,444.936a.383.383,0,1,1-.383-.386.383.383,0,0,1,.383.386Z" transform="translate(-414.474 -253.411)" fill="#404d79"/>
  <path id="Path_553" data-name="Path 553" d="M860.99,474.24c1.036,0,1.036,4.847,2.069,4.847s1.033-4.847,2.069-4.847,1.036,4.847,2.072,4.847,1.033-4.847,2.069-4.847,1.036,4.847,2.072,4.847,1.036-4.847,2.072-4.847,1.036,4.847,2.072,4.847,1.036-4.847,2.072-4.847,1.033,4.847,2.065,4.847,1.036-4.847,2.072-4.847,1.036,4.847,2.069,4.847,1.036-4.847,2.072-4.847,1.039,4.847,2.075,4.847,1.036-4.847,2.072-4.847,1.039,4.847,2.078,4.847,1.039-4.847,2.078-4.847,1.042,4.847,2.081,4.847" transform="translate(-412.015 -273.696)" fill="#fff"/>
  <path id="Path_554" data-name="Path 554" d="M896.216,478.911c-.643,0-.9-1.178-1.188-2.544-.222-1.026-.494-2.3-.893-2.3s-.672,1.277-.89,2.3c-.291,1.365-.545,2.544-1.188,2.544s-.9-1.178-1.188-2.544c-.219-1.026-.494-2.3-.89-2.3s-.668,1.277-.887,2.3c-.291,1.365-.542,2.544-1.185,2.544s-.893-1.178-1.185-2.544c-.219-1.026-.494-2.3-.89-2.3s-.665,1.277-.887,2.3c-.291,1.365-.542,2.544-1.185,2.544s-.89-1.178-1.182-2.544c-.219-1.026-.494-2.3-.887-2.3s-.668,1.277-.887,2.3c-.291,1.365-.545,2.544-1.185,2.544s-.893-1.178-1.182-2.544c-.219-1.026-.491-2.3-.884-2.3s-.668,1.277-.887,2.3c-.291,1.365-.545,2.544-1.185,2.544s-.893-1.178-1.185-2.544c-.222-1.026-.494-2.3-.887-2.3s-.668,1.277-.887,2.3c-.291,1.365-.545,2.544-1.185,2.544s-.893-1.178-1.185-2.544c-.219-1.026-.491-2.3-.887-2.3s-.665,1.277-.884,2.3c-.291,1.365-.545,2.544-1.185,2.544s-.893-1.178-1.185-2.544c-.219-1.026-.491-2.3-.887-2.3s-.665,1.277-.887,2.3c-.291,1.365-.542,2.544-1.182,2.544s-.893-1.178-1.182-2.544c-.222-1.026-.491-2.3-.887-2.3v-.3c.64,0,.893,1.178,1.185,2.544.219,1.026.491,2.3.884,2.3s.665-1.277.884-2.3c.291-1.365.545-2.544,1.185-2.544s.893,1.178,1.185,2.544c.219,1.026.491,2.3.887,2.3s.665-1.277.887-2.3c.288-1.365.542-2.544,1.182-2.544s.893,1.178,1.185,2.544c.219,1.026.491,2.3.887,2.3s.668-1.277.887-2.3c.291-1.365.542-2.544,1.185-2.544s.893,1.178,1.185,2.544c.219,1.026.491,2.3.887,2.3s.665-1.277.887-2.3c.291-1.365.542-2.544,1.185-2.544s.89,1.178,1.182,2.544c.219,1.026.491,2.3.884,2.3s.668-1.277.887-2.3c.291-1.365.545-2.544,1.185-2.544s.893,1.178,1.185,2.544c.219,1.026.491,2.3.884,2.3s.668-1.277.887-2.3c.291-1.365.545-2.544,1.185-2.544s.9,1.178,1.188,2.544c.219,1.026.491,2.3.887,2.3s.668-1.277.887-2.3c.291-1.365.545-2.544,1.185-2.544s.9,1.178,1.188,2.544c.219,1.026.494,2.3.89,2.3s.668-1.277.89-2.3c.291-1.365.545-2.544,1.188-2.544s.9,1.178,1.188,2.544c.222,1.026.494,2.3.893,2.3v.3Z" transform="translate(-412.015 -273.368)" fill="#404d79"/>
  <path id="Path_555" data-name="Path 555" d="M950.575,471.263a1.673,1.673,0,1,1-1.673-1.673,1.676,1.676,0,0,1,1.673,1.673Z" transform="translate(-470.936 -270.519)" fill="#f5b5d3"/>
  <path id="Path_556" data-name="Path 556" d="M737.885,668.121H653.66V665.07h84.225Z" transform="translate(-270.363 -404.075)" fill="#f9af15"/>
  <path id="Path_557" data-name="Path 557" d="M230.377,848H-148.84V674.7H230.377Z" transform="translate(277.921 -410.655)" fill="#e7e5f4"/>
  <path id="Path_558" data-name="Path 558" d="M935.973,848H883.91V674.7h52.063Z" transform="translate(-427.674 -410.655)" fill="#404d79"/>
  <path id="Path_559" data-name="Path 559" d="M-20.772,715.594a8.342,8.342,0,0,1-8.344,8.341,8.342,8.342,0,0,1-8.344-8.341,8.343,8.343,0,0,1,8.344-8.344,8.343,8.343,0,0,1,8.344,8.344Z" transform="translate(201.824 -432.893)" fill="#404d79"/>
  <path id="Path_560" data-name="Path 560" d="M-12.916,709.051H-16.03V702.57h3.114Z" transform="translate(187.183 -429.696)" fill="#f5b5d3"/>
  <path id="Path_561" data-name="Path 561" d="M91.557,721.492a8.344,8.344,0,1,1,0-11.8,8.348,8.348,0,0,1,0,11.8Z" transform="translate(123.409 -432.893)" fill="#404d79"/>
  <path id="Path_562" data-name="Path 562" d="M109.842,714.965l-2.2-2.2,4.584-4.584,2.2,2.2Z" transform="translate(102.689 -433.529)" fill="#f5b5d3"/>
  <path id="Path_563" data-name="Path 563" d="M204.664,704.91a8.342,8.342,0,1,1-8.344,8.344,8.343,8.343,0,0,1,8.344-8.344Z" transform="translate(42.101 -431.295)" fill="#404d79"/>
  <path id="Path_564" data-name="Path 564" d="M198.124,726.33v3.114H191.64V726.33Z" transform="translate(45.299 -445.929)" fill="#f5b5d3"/>
  <path id="Path_565" data-name="Path 565" d="M316.414,722.278a8.344,8.344,0,1,1,8.344-8.344,8.345,8.345,0,0,1-8.344,8.344Z" transform="translate(-34.249 -431.759)" fill="#404d79"/>
  <path id="Path_566" data-name="Path 566" d="M344.96,730.134V727.02h6.484v3.114Z" transform="translate(-59.453 -446.401)" fill="#f5b5d3"/>
  <path id="Path_567" data-name="Path 567" d="M75.145,907.429H-89.9V778.62H75.145Z" transform="translate(237.653 -481.655)" fill="#f5b5d3"/>
  <path id="Path_568" data-name="Path 568" d="M2.761,822.852H-56.23v-.722H2.761Z" transform="translate(214.648 -511.382)" fill="#404d79"/>
  <path id="Path_569" data-name="Path 569" d="M2.761,887.842H-56.23v-.722H2.761Z" transform="translate(214.648 -555.784)" fill="#404d79"/>
  <path id="Path_570" data-name="Path 570" d="M2.761,952.842H-56.23v-.722H2.761Z" transform="translate(214.648 -600.194)" fill="#404d79"/>
  <path id="Path_571" data-name="Path 571" d="M2.761,1017.835H-56.23v-.725H2.761Z" transform="translate(214.648 -644.596)" fill="#404d79"/>
  <path id="Path_572" data-name="Path 572" d="M2.761,1082.832H-56.23v-.722H2.761Z" transform="translate(214.648 -689.005)" fill="#404d79"/>
  <path id="Path_573" data-name="Path 573" d="M2.761,1147.825H-56.23v-.725H2.761Z" transform="translate(214.648 -733.408)" fill="#404d79"/>
  <path id="Path_574" data-name="Path 574" d="M170.48,927.682h70.493V822.86H170.48V927.682Zm71.19.7H169.78V822.16h71.89V928.379Z" transform="translate(60.234 -511.402)" fill="#404d79"/>
  <path id="Path_575" data-name="Path 575" d="M268.019,979.212H262.77V960.88h5.249Z" transform="translate(-3.299 -606.179)" fill="#404d79"/>
  <path id="Path_576" data-name="Path 576" d="M292.406,979.212H287.16V960.88h5.246Z" transform="translate(-19.963 -606.179)" fill="#404d79"/>
  <path id="Path_577" data-name="Path 577" d="M270.36,879.626h-1.21v-41.8h1.21Z" transform="translate(-7.658 -522.108)" fill="#404d79"/>
  <path id="Path_578" data-name="Path 578" d="M270.36,1057.761h-1.21V1018.75h1.21Z" transform="translate(-7.658 -645.717)" fill="#404d79"/>
  <path id="Path_579" data-name="Path 579" d="M294.74,879.576h-1.21v-41.8h1.21Z" transform="translate(-24.315 -522.074)" fill="#404d79"/>
  <path id="Path_580" data-name="Path 580" d="M294.74,1057.711h-1.21V1018.7h1.21Z" transform="translate(-24.315 -645.682)" fill="#404d79"/>
  <path id="Path_581" data-name="Path 581" d="M601.688,743.757H486.32V716.53H601.688Z" transform="translate(-156.033 -439.234)" fill="#404d79"/>
  <path id="Path_582" data-name="Path 582" d="M663.95,751.178a3.86,3.86,0,1,1-3.862-3.858,3.862,3.862,0,0,1,3.862,3.858Z" transform="translate(-272.119 -460.27)" fill="#f5b5d3"/>
  <path id="Path_583" data-name="Path 583" d="M601.688,844.43H486.32V817.2H601.688Z" transform="translate(-156.033 -508.013)" fill="#404d79"/>
  <path id="Path_584" data-name="Path 584" d="M663.95,851.858A3.86,3.86,0,1,1,660.088,848a3.863,3.863,0,0,1,3.862,3.858Z" transform="translate(-272.119 -529.057)" fill="#f5b5d3"/>
  <path id="Path_585" data-name="Path 585" d="M489.357,1013.662h51.268V936.194H489.357v77.468Zm52.475,1.2H488.15V934.99h53.681v79.876Z" transform="translate(-157.283 -588.49)" fill="#404d79"/>
  <path id="Path_586" data-name="Path 586" d="M625.044,1046.226a4.112,4.112,0,1,1-4.112-4.156,4.133,4.133,0,0,1,4.112,4.156Z" transform="translate(-245.193 -661.649)" fill="#404d79"/>
  <path id="Path_587" data-name="Path 587" d="M684.157,1013.662h51.268V936.194H684.157v77.468Zm52.475,1.2H682.95V934.99h53.681v79.876Z" transform="translate(-290.374 -588.49)" fill="#404d79"/>
  <path id="Path_588" data-name="Path 588" d="M707.234,1046.226a4.112,4.112,0,1,1-4.112-4.156,4.133,4.133,0,0,1,4.112,4.156Z" transform="translate(-301.347 -661.649)" fill="#404d79"/>
  <path id="Path_589" data-name="Path 589" d="M1025.312,976.214H966.09V891.973A29.612,29.612,0,0,1,995.7,862.36h0a29.611,29.611,0,0,1,29.609,29.612v84.241Z" transform="translate(-483.821 -538.868)" fill="#f9af15"/>
  <path id="Path_590" data-name="Path 590" d="M1045.564,824.752H1014.25v-27.7h31.314Z" transform="translate(-516.725 -494.247)" fill="#e7e5f4"/>
  <path id="Path_591" data-name="Path 591" d="M1020.133,826.07h-5.883V797.05h5.883Z" transform="translate(-516.725 -494.247)" fill="#f9af15"/>
  <path id="Path_592" data-name="Path 592" d="M1100.413,826.07h-5.883V797.05h5.883Z" transform="translate(-571.574 -494.247)" fill="#f9af15"/>
  <path id="Path_593" data-name="Path 593" d="M1057.824,847.45H1047.7v4.723h2.392v7.013h5.328v-7.013h2.4Z" transform="translate(-539.579 -528.681)" fill="#404d79"/>
  <path id="Path_594" data-name="Path 594" d="M958.2,785.964H944.146a4.256,4.256,0,0,1-4.251-4.251V759.881a1.781,1.781,0,0,0-1.777-1.777H932.21V755.68h5.908a4.206,4.206,0,0,1,4.2,4.2v21.832a1.831,1.831,0,0,0,1.828,1.828H958.2v2.423Z" transform="translate(-460.674 -465.982)" fill="#e7e5f4"/>
  <path id="Path_595" data-name="Path 595" d="M-25.982,660.851H-82.09v-6.1h56.108Z" transform="translate(232.317 -397.024)" fill="#f9af15"/>
  <path id="Path_596" data-name="Path 596" d="M-31.041,542.979h-3.5v-5.74h3.5v5.74Zm-60.41,0v-5.74h3.367v5.74Zm61.7-7.029h-4.793V531.28H-88.083v4.669H-92.74v8.319h4.657V561.08a9.531,9.531,0,0,0,9.532,9.532h34.478a9.531,9.531,0,0,0,9.532-9.532V544.268h4.79v-8.319Z" transform="translate(239.593 -312.667)" fill="#404d79"/>
  <path id="Path_597" data-name="Path 597" d="M-170.577,217.09V245.7L-198.9,217.188Z" transform="translate(312.123 -98.006)" fill="#f5b5d3"/>
  <path id="Path_598" data-name="Path 598" d="M-99.007-39.063H-241.086a8.794,8.794,0,0,1-8.794-8.794V-149.036a8.794,8.794,0,0,1,8.794-8.794H-99.007a8.794,8.794,0,0,1,8.794,8.794V-47.857a8.794,8.794,0,0,1-8.794,8.794Z" transform="translate(346.954 158.147)" fill="#fff"/>
  <path id="Path_599" data-name="Path 599" d="M-241.776-158.19a8.48,8.48,0,0,0-8.471,8.471V-48.54a8.482,8.482,0,0,0,8.471,8.471H-99.7a8.482,8.482,0,0,0,8.471-8.471V-149.719A8.48,8.48,0,0,0-99.7-158.19ZM-99.7-39.423H-241.776a9.124,9.124,0,0,1-9.114-9.114V-149.716a9.124,9.124,0,0,1,9.114-9.114H-99.7a9.124,9.124,0,0,1,9.114,9.114V-48.537A9.124,9.124,0,0,1-99.7-39.423Z" transform="translate(347.644 158.83)" fill="#404d79"/>
  <line id="Line_27" data-name="Line 27" x2="160.11" transform="translate(97.074 15.139)" fill="#fff"/>
  <path id="Path_600" data-name="Path 600" d="M-89.77-111.407H-249.88v-.643H-89.77Z" transform="translate(346.954 126.869)" fill="#404d79"/>
  <path id="Path_601" data-name="Path 601" d="M-219.852-137.256a2.345,2.345,0,0,1-2.344,2.344,2.343,2.343,0,0,1-2.344-2.344A2.343,2.343,0,0,1-222.2-139.6a2.343,2.343,0,0,1,2.344,2.344Z" transform="translate(329.641 145.692)" fill="#f9af15"/>
  <path id="Path_602" data-name="Path 602" d="M-196.172-137.256a2.345,2.345,0,0,1-2.344,2.344,2.343,2.343,0,0,1-2.344-2.344,2.343,2.343,0,0,1,2.344-2.344,2.343,2.343,0,0,1,2.344,2.344Z" transform="translate(313.463 145.692)" fill="#2f3a5b"/>
  <path id="Path_603" data-name="Path 603" d="M-173.322-137.256a2.345,2.345,0,0,1-2.344,2.344,2.343,2.343,0,0,1-2.344-2.344,2.343,2.343,0,0,1,2.344-2.344,2.343,2.343,0,0,1,2.344,2.344Z" transform="translate(297.851 145.692)" fill="#2f3a5b"/>
  <path id="Path_604" data-name="Path 604" d="M5.5-47.038H-59.72V-67.23H5.5Z" transform="translate(217.033 96.247)" fill="#e7e5f4"/>
  <path id="Path_605" data-name="Path 605" d="M10.689-53.29H-45.72v-3.18H10.689Z" transform="translate(207.468 88.896)" fill="#efeff9"/>
  <path id="Path_606" data-name="Path 606" d="M10.689-36.16H-45.72v-3.18H10.689Z" transform="translate(207.468 77.192)" fill="#efeff9"/>
  <path id="Path_607" data-name="Path 607" d="M-20.682-19.026H-45.72V-22.21h25.038Z" transform="translate(207.468 65.488)" fill="#efeff9"/>
  <path id="Path_608" data-name="Path 608" d="M-140.1-58.1a10.544,10.544,0,0,1-10.546,10.546A10.544,10.544,0,0,1-161.19-58.1,10.544,10.544,0,0,1-150.644-68.65,10.546,10.546,0,0,1-140.1-58.1Z" transform="translate(286.359 97.217)" fill="#f5b5d3"/>
  <path id="Path_609" data-name="Path 609" d="M-142.558-58.7l-6.792-7.97L-146.623-69l4.074,4.78L-130.92-77.76l2.721,2.338Z" transform="translate(278.27 103.441)" fill="#2f3a5b"/>
  <path id="Path_610" data-name="Path 610" d="M5.5,49.328H-59.72V29.14H5.5Z" transform="translate(217.033 30.405)" fill="#e7e5f4"/>
  <path id="Path_611" data-name="Path 611" d="M10.689,43.074H-45.72V39.89H10.689Z" transform="translate(207.468 23.06)" fill="#efeff9"/>
  <path id="Path_612" data-name="Path 612" d="M10.689,60.21H-45.72V57.03H10.689Z" transform="translate(207.468 11.35)" fill="#efeff9"/>
  <path id="Path_613" data-name="Path 613" d="M-20.682,77.34H-45.72V74.16h25.038Z" transform="translate(207.468 -0.354)" fill="#efeff9"/>
  <path id="Path_614" data-name="Path 614" d="M-140.1,38.266a10.544,10.544,0,0,1-10.546,10.546A10.544,10.544,0,0,1-161.19,38.266,10.544,10.544,0,0,1-150.644,27.72,10.544,10.544,0,0,1-140.1,38.266Z" transform="translate(286.359 31.375)" fill="#f5b5d3"/>
  <path id="Path_615" data-name="Path 615" d="M-142.558,37.664-149.35,29.7l2.727-2.325,4.074,4.78L-130.92,18.61l2.721,2.335Z" transform="translate(278.27 37.599)" fill="#2f3a5b"/>
  <path id="Path_616" data-name="Path 616" d="M5.5,142.448H-59.72V122.26H5.5Z" transform="translate(217.033 -33.216)" fill="#e7e5f4"/>
  <path id="Path_617" data-name="Path 617" d="M10.689,136.194H-45.72V133.01H10.689Z" transform="translate(207.468 -40.561)" fill="#efeff9"/>
  <path id="Path_618" data-name="Path 618" d="M10.689,153.324H-45.72V150.14H10.689Z" transform="translate(207.468 -52.264)" fill="#efeff9"/>
  <path id="Path_619" data-name="Path 619" d="M-20.682,170.454H-45.72V167.27h25.038Z" transform="translate(207.468 -63.968)" fill="#efeff9"/>
  <path id="Path_620" data-name="Path 620" d="M-140.1,131.376a10.544,10.544,0,0,1-10.546,10.546,10.544,10.544,0,0,1-10.546-10.546,10.544,10.544,0,0,1,10.546-10.546A10.548,10.548,0,0,1-140.1,131.376Z" transform="translate(286.359 -32.239)" fill="#f5b5d3"/>
  <path id="Path_621" data-name="Path 621" d="M-142.558,130.784l-6.792-7.97,2.727-2.325,4.074,4.78,11.629-13.539,2.721,2.335Z" transform="translate(278.27 -26.022)" fill="#2f3a5b"/>
  <path id="Path_622" data-name="Path 622" d="M-459.55,1115.7l14.8,3.241,4.007-18.307-14.8-3.241Z" transform="translate(490.205 -699.445)" fill="#e67282"/>
  <path id="Path_623" data-name="Path 623" d="M-471.827,1143.569c3.843,1.536,10.213,3.377,14.746,1.08L-439,1158.166a8.2,8.2,0,0,1,3.1,8.322h0l-42.569-9.317,2.5-11.417a3.067,3.067,0,0,1,4.143-2.186Z" transform="translate(503.131 -730.843)" fill="#404d79"/>
  <path id="Path_624" data-name="Path 624" d="M-396.964,500.159s-11.179,96.485-40.947,191.9l-16.609-3.633,16.431-145.592s-17.717-30.528-7.672-53.355l48.8,10.679Z" transform="translate(486.768 -284.109)" fill="#3c4564"/>
  <path id="Path_625" data-name="Path 625" d="M-306.98,1140.868h15.152V1122.13H-306.98Z" transform="translate(385.966 -716.348)" fill="#e67282"/>
  <path id="Path_626" data-name="Path 626" d="M-315.08,1165.437c4.083.681,10.7,1.118,14.635-2.1l20.553,9.342a8.2,8.2,0,0,1,4.809,7.466H-318.66v-11.689a3.071,3.071,0,0,1,3.58-3.022Z" transform="translate(393.946 -744.503)" fill="#404d79"/>
  <path id="Path_627" data-name="Path 627" d="M-371.11,521.86s10.688,65.763,2.94,196.22h-18.915l-15.072-145.738s-23.834-26.033-18.9-50.482Z" transform="translate(464.366 -306.231)" fill="#404d79"/>
  <path id="Path_628" data-name="Path 628" d="M-384.524,1171.938l-1.546-1.169,4.59-6.079,1.546,1.169Z" transform="translate(440.002 -745.426)" fill="#f1921a"/>
  <path id="Path_629" data-name="Path 629" d="M-398.814,1161.148l-1.546-1.169,4.59-6.079,1.546,1.169Z" transform="translate(449.765 -738.054)" fill="#f1921a"/>
  <path id="Path_630" data-name="Path 630" d="M-222.379,1181.422l-1.761-.8,3.165-6.928,1.761.8Z" transform="translate(329.368 -751.575)" fill="#f1921a"/>
  <path id="Path_631" data-name="Path 631" d="M-238.666,1173.983l-1.764-.8,3.165-6.928,1.761.8Z" transform="translate(340.498 -746.492)" fill="#f1921a"/>
  <path id="Path_632" data-name="Path 632" d="M-474.795,152.851c-3.9,2.686-5.122,7.862-8.182,11.471-2.772,3.269-6.972,5.151-9.478,8.629-2.385,3.314-2.889,7.577-4.321,11.4a24.288,24.288,0,0,1-6.307,9.345c-1.936,1.774-4.166,3.237-5.857,5.243s-2.8,4.787-1.936,7.267c1.216,3.507,5.509,4.7,9.193,5.132a81.462,81.462,0,0,0,18.468.048c4.058-.453,8.35-1.343,11.249-4.216,3.009-2.984,3.906-7.482,6.32-10.967,1.7-2.458,4.14-4.378,5.607-6.985,1.251-2.227,1.72-4.831,3.019-7.033,2.043-3.459,5.9-5.534,8-8.965,2.024-3.31,2.135-7.467,1.479-11.29-.573-3.339-1.78-6.728-4.286-9.009-3.538-3.228-6.361-1.445-10.257-1.283-4.549.2-8.477-1.7-12.709,1.213Z" transform="translate(525.476 -52.853)" fill="#f9af15"/>
  <path id="Path_633" data-name="Path 633" d="M-372.325,217.046l-1.926-17.863a1.661,1.661,0,0,0-1.65-1.483h-9.722a5.819,5.819,0,0,0-5.819,5.819v2.626a3.1,3.1,0,0,0-.944-.149,3.053,3.053,0,0,0-3.054,3.054,3.051,3.051,0,0,0,3.054,3.054,2.955,2.955,0,0,0,.716-.089l-2.018,22.314h15.164V219.995l2.661.412a3.1,3.1,0,0,0,3.535-2.594,2.824,2.824,0,0,0,0-.767Z" transform="translate(446.404 -84.759)" fill="#e67282"/>
  <path id="Path_634" data-name="Path 634" d="M-335.84,218.61c0,.735.209,1.33.469,1.33s.469-.6.469-1.33-.209-1.33-.469-1.33-.469.6-.469,1.33Z" transform="translate(405.684 -98.136)" fill="#2f3a5b"/>
  <path id="Path_635" data-name="Path 635" d="M-351.67,218.61c0,.735.209,1.33.469,1.33s.469-.6.469-1.33-.209-1.33-.469-1.33-.469.6-.469,1.33Z" transform="translate(416.499 -98.136)" fill="#2f3a5b"/>
  <path id="Path_636" data-name="Path 636" d="M-341.727,220.371l1.907,5.943a.7.7,0,0,1-.668.915h-.542a.55.55,0,0,1-.551-.523l-.339-6.3a.1.1,0,0,1,.193-.032Z" transform="translate(409.838 -100.201)" fill="#2f3a5b"/>
  <path id="Path_637" data-name="Path 637" d="M-343.082,250.009a.274.274,0,0,0-.383-.022c-.07.06-1.739,1.47-4.844-.58l.377-.58a.267.267,0,0,0-.079-.374.267.267,0,0,0-.374.079l-1.131,1.736a.267.267,0,0,0,.079.374.282.282,0,0,0,.149.044.276.276,0,0,0,.228-.124l.459-.706a6.268,6.268,0,0,0,3.415,1.2,3.221,3.221,0,0,0,2.084-.668.273.273,0,0,0,.019-.38Z" transform="translate(415.058 -119.404)" fill="#2f3a5b"/>
  <path id="Path_638" data-name="Path 638" d="M-353.693,265.637-359.1,264.5l5.407,5.4Z" transform="translate(421.575 -130.398)" fill="#2f3a5b"/>
  <path id="Path_639" data-name="Path 639" d="M-387.018,231.565a.272.272,0,0,1-.272-.269v-2.677a.249.249,0,0,0-.25-.25h-.9a.272.272,0,0,1-.272-.269.27.27,0,0,1,.272-.269h.9a.792.792,0,0,1,.792.792V231.3a.264.264,0,0,1-.269.266Z" transform="translate(441.805 -105.344)" fill="#2f3a5b"/>
  <path id="Path_640" data-name="Path 640" d="M-371.754,181.593a9.7,9.7,0,0,0-2.7-2.889,8.577,8.577,0,0,0-2.357-1.419,3.449,3.449,0,0,0-2.686.067,4.653,4.653,0,0,0-1.758,1.923,3.528,3.528,0,0,0-.71,2.382c.022.117.051.234.076.352-13.808-2.309-15.459,5.75-15.459,5.75l4.6,4.124a21.476,21.476,0,0,0,8.683-3.263,22.229,22.229,0,0,1-4.859,3.472.407.407,0,0,0-.162.551.4.4,0,0,0,.358.212.383.383,0,0,0,.193-.051c4.948-2.7,7.01-5.528,7.866-7.52a14.266,14.266,0,0,0,1.3,1.723,13.132,13.132,0,0,0,2.6,2.461,5.921,5.921,0,0,0,3.361,1.1,1.941,1.941,0,0,0,1.337-.443,2.026,2.026,0,0,0,.4-.608,8.505,8.505,0,0,0,.646-2.75,8.994,8.994,0,0,0-.732-5.173Z" transform="translate(447.708 -70.647)" fill="#f9af15"/>
  <path id="Path_641" data-name="Path 641" d="M-149.47,382.942l-2.87.462-.814-.462c-.228-.13-.459-.279-.694-.418l-.019-.013h0a2.735,2.735,0,0,0-.995-.386,3.259,3.259,0,0,0-1.875.532c-1.188.634-2.328,1.346-3.491,2.021l0,.016-61.718-15.243-3.307,16.862,63.872,6.2.013-.06,8.743-.029a1.107,1.107,0,0,0,1.03-.719l2.927-7.834a.7.7,0,0,0-.8-.931Z" transform="translate(330.133 -202.102)" fill="#e67282"/>
  <path id="Path_642" data-name="Path 642" d="M4.183,419.083a.2.2,0,0,1-.1-.158.207.207,0,0,1,.193-.225l3.063-.241a.211.211,0,0,1,.225.193.209.209,0,0,1-.193.225l-3.063.241a.206.206,0,0,1-.13-.035Z" transform="translate(173.438 -235.585)" fill="#404d79"/>
  <path id="Path_643" data-name="Path 643" d="M-.416,427.361a.214.214,0,0,1-.1-.168.209.209,0,0,1,.2-.219L3.4,426.8a.211.211,0,0,1,.019.421l-3.706.171a.206.206,0,0,1-.124-.032Z" transform="translate(176.58 -241.284)" fill="#404d79"/>
  <path id="Path_644" data-name="Path 644" d="M-4.745,434.781a.208.208,0,0,1-.1-.171.21.21,0,0,1,.206-.215l4.058-.1a.207.207,0,0,1,.212.206.209.209,0,0,1-.206.212l-4.058.1a.249.249,0,0,1-.117-.032Z" transform="translate(179.538 -246.408)" fill="#404d79"/>
  <path id="Path_645" data-name="Path 645" d="M-30.144,442.12l-3.326-.016,9.741-41.324,2.762.621Z" transform="translate(199.098 -223.507)" fill="#f9af15"/>
  <path id="Path_646" data-name="Path 646" d="M-11.748,409.462a1.512,1.512,0,0,1,.421-.146c.786-.143,3.355-.472,4.254,1.058l-.589.9-4.539,1.79a1.5,1.5,0,0,1-2.021-1.125h0a1.5,1.5,0,0,1,.779-1.6l1.695-.884Z" transform="translate(185.965 -229.25)" fill="#e67282"/>
  <path id="Path_647" data-name="Path 647" d="M-9.7,417.7a.3.3,0,0,1-.282-.2.3.3,0,0,1,.174-.39l4.5-1.714a.3.3,0,0,1,.39.177.3.3,0,0,1-.174.39l-4.5,1.711a.253.253,0,0,1-.108.022Z" transform="translate(183.066 -233.479)" fill="#404d79"/>
  <path id="Path_648" data-name="Path 648" d="M-426.435,312.9l-30.385-20.961,0,.025c-2.281-1.863-5.173-2.721-9.025-2.721H-487.2a15.869,15.869,0,0,0-11.55,4.964l0,0-26.514,28.114,23.325,11.575-.162,38.08s2.5,9.922,31.478,8.987,34.757-15.415,34.757-15.415l-8-33.594,13.634,2.347,3.8-21.4Z" transform="translate(535.106 -147.301)" fill="#e7e5f4"/>
  <path id="Path_649" data-name="Path 649" d="M-413.732,330.28l35.166.048a2.04,2.04,0,0,1,1.974,1.527l20.116,77.088a5.993,5.993,0,0,1-6.266,7.489l-27.709-2.157A27.924,27.924,0,0,1-416.2,387.237l.76-55.275a1.709,1.709,0,0,1,1.707-1.682Z" transform="translate(460.587 -175.34)" fill="#f9af15"/>
  <path id="Path_650" data-name="Path 650" d="M-404.866,308.877a.454.454,0,0,1-.453-.428l-1.213-20.169a.454.454,0,0,1,.428-.481.456.456,0,0,1,.481.428l1.213,20.169a.454.454,0,0,1-.424.482Z" transform="translate(453.982 -146.315)" fill="#404d79"/>
  <path id="Path_651" data-name="Path 651" d="M-403.464,352.458a1.628,1.628,0,0,1-1.628,1.628,1.628,1.628,0,0,1-1.628-1.628,1.628,1.628,0,0,1,1.628-1.628,1.626,1.626,0,0,1,1.628,1.628Z" transform="translate(454.11 -189.38)" fill="#404d79"/>
  <path id="Path_652" data-name="Path 652" d="M-316.737,309.49a.452.452,0,0,1-.428-.3l-6.63-18.921a.455.455,0,0,1,.279-.58.455.455,0,0,1,.58.279l6.63,18.921a.455.455,0,0,1-.279.58.511.511,0,0,1-.152.025Z" transform="translate(397.472 -147.587)" fill="#404d79"/>
  <path id="Path_653" data-name="Path 653" d="M-303.344,348.358a1.628,1.628,0,0,1-1.628,1.628,1.628,1.628,0,0,1-1.628-1.628,1.628,1.628,0,0,1,1.628-1.628,1.628,1.628,0,0,1,1.628,1.628Z" transform="translate(385.706 -186.579)" fill="#404d79"/>
  <path id="Path_654" data-name="Path 654" d="M-440.673,502.72a.517.517,0,0,1-.1-.01l-11.927-2.626a.454.454,0,0,1-.345-.542.456.456,0,0,1,.542-.345l11.927,2.623a.456.456,0,0,1,.345.542.456.456,0,0,1-.444.358Z" transform="translate(485.766 -290.74)" fill="#404d79"/>
  <path id="Path_655" data-name="Path 655" d="M-376.373,452.005l1.764,11.8a17.864,17.864,0,0,0,17.2,13.134h5.575a9.92,9.92,0,0,0,7.881-3.855,9.925,9.925,0,0,0,1.8-8.588l-1.815-10.489-32.4-2Zm24.541,25.257h-5.575a18.185,18.185,0,0,1-17.515-13.39l-1.828-12.212.2.013,32.856,2.027,1.856,10.729a10.228,10.228,0,0,1-1.856,8.851,10.247,10.247,0,0,1-8.138,3.982Z" transform="translate(433.634 -258.269)" fill="#404d79"/>
  <path id="Path_656" data-name="Path 656" d="M-452.274,408.971a.306.306,0,0,1-.222-.1.3.3,0,0,1,.013-.428l10.321-9.671a.3.3,0,0,1,.428.013.3.3,0,0,1-.013.428l-10.321,9.671a.293.293,0,0,1-.206.086Z" transform="translate(485.441 -222.08)" fill="#404d79"/>
  <path id="Path_657" data-name="Path 657" d="M-472.417,426.164l.754-1.967-7.828,2.525-42.917-9.76,5.712-5.712-15.034-7.46-10.508,13.051-.589.729a6.271,6.271,0,0,0,4.159,10.162l57.708,6.732h10.1a2.29,2.29,0,0,0,2.034-1.242l3.919-7.647-7.5.589Z" transform="translate(548.054 -225.564)" fill="#e67282"/>
  <path id="Path_658" data-name="Path 658" d="M-319.165,479.812a.2.2,0,0,1-.206-.2.208.208,0,0,1,.2-.219l6.713-.348a.208.208,0,0,1,.219.2.209.209,0,0,1-.2.219l-6.713.348Z" transform="translate(394.432 -276.981)" fill="#404d79"/>
  <path id="Path_659" data-name="Path 659" d="M-322.415,487.311a.206.206,0,0,1-.206-.2.206.206,0,0,1,.2-.215l6.713-.348a.2.2,0,0,1,.219.2.208.208,0,0,1-.2.219l-6.713.345a.019.019,0,0,1-.013,0Z" transform="translate(396.652 -282.104)" fill="#404d79"/>
  <path id="Path_660" data-name="Path 660" d="M-326.625,493.939a.2.2,0,0,1-.206-.2.2.2,0,0,1,.2-.215l6.713-.348a.206.206,0,0,1,.219.2.208.208,0,0,1-.2.219l-6.713.345Z" transform="translate(399.529 -286.635)" fill="#404d79"/>
  <path id="Path_661" data-name="Path 661" d="M-510.614,403.8l15.038,7.457-2.141,2.141-15.592-6.25Z" transform="translate(526.935 -225.57)" fill="#404d79"/>
  <path id="Path_662" data-name="Path 662" d="M3.072,1223.569H-556.32V1216.4H3.072Z" transform="translate(556.32 -780.755)" fill="#e7e5f4"/>
  <path id="Path_663" data-name="Path 663" d="M269.357,1215.7H-166.57v-1.2H269.357Z" transform="translate(290.035 -779.457)" fill="#404d79"/>
  <path id="Path_664" data-name="Path 664" d="M-525.374,1215.7H-556.32v-1.2h30.946Z" transform="translate(556.32 -779.457)" fill="#404d79"/>
  <path id="Path_665" data-name="Path 665" d="M51.3,398.181l-6.741-1.118A1.614,1.614,0,0,0,42.7,398.39l-2.651,15.978a1.614,1.614,0,0,0,1.327,1.856l1.356.225-1.464,8.819,4.029.668,1.464-8.819,1.356.225a1.612,1.612,0,0,0,1.856-1.327l2.651-15.978a1.609,1.609,0,0,0-1.327-1.856Z" transform="translate(148.881 -220.952)" fill="#404d79"/>
  <path id="Path_666" data-name="Path 666" d="M46.728,487.961l-5.078-.843.206-1.248,5.078.843Z" transform="translate(147.775 -281.642)" fill="#f9af15"/>
  <path id="Path_667" data-name="Path 667" d="M43.934,408.22l3.944,2.053a1.284,1.284,0,0,1,.621,1.562L46.4,417.9a1.416,1.416,0,0,1-1.951.789l-2.084-.982,1.574-9.488Z" transform="translate(147.29 -228.59)" fill="#e67282"/>
  <path id="Path_668" data-name="Path 668" d="M49.667,417.464a.269.269,0,0,1-.12-.029l-3.709-1.92a.259.259,0,0,1,.238-.459l3.709,1.917a.261.261,0,0,1,.111.352.256.256,0,0,1-.228.139Z" transform="translate(145.01 -233.241)" fill="#404d79"/>
  <path id="Path_669" data-name="Path 669" d="M47.783,424.522a.269.269,0,0,1-.12-.028L44.5,422.856a.259.259,0,0,1,.238-.459l3.165,1.638a.257.257,0,0,1,.111.348.252.252,0,0,1-.228.139Z" transform="translate(145.925 -238.256)" fill="#404d79"/>
  <path id="Path_670" data-name="Path 670" d="M46.369,431.9a.269.269,0,0,1-.12-.028l-2.791-1.445a.257.257,0,0,1-.111-.348.261.261,0,0,1,.348-.111l2.791,1.445a.258.258,0,0,1,.111.348.252.252,0,0,1-.228.139Z" transform="translate(146.635 -243.431)" fill="#404d79"/>
</svg>
